<svg width="110" height="110" viewBox="0 0 110 110" fill="none" xmlns="http://www.w3.org/2000/svg">
<g id="directions_car_24px">
<path id="icon/maps/directions_car_24px" fill-rule="evenodd" clip-rule="evenodd" d="M86.7167 22.9625C85.8 20.2583 83.2333 18.3333 80.2083 18.3333H29.7917C26.7667 18.3333 24.2458 20.2583 23.2833 22.9625L13.75 50.4167V87.0833C13.75 89.6042 15.8125 91.6667 18.3333 91.6667H22.9167C25.4375 91.6667 27.5 89.6042 27.5 87.0833V82.5H82.5V87.0833C82.5 89.6042 84.5625 91.6667 87.0833 91.6667H91.6667C94.1875 91.6667 96.25 89.6042 96.25 87.0833V50.4167L86.7167 22.9625ZM31.3958 27.5H78.5583L83.5083 41.7542H26.4458L31.3958 27.5ZM22.9167 73.3333H87.0833V50.4167H22.9167V73.3333ZM34.375 55C30.578 55 27.5 58.078 27.5 61.875C27.5 65.672 30.578 68.75 34.375 68.75C38.172 68.75 41.25 65.672 41.25 61.875C41.25 58.078 38.172 55 34.375 55ZM68.75 61.875C68.75 58.078 71.828 55 75.625 55C79.422 55 82.5 58.078 82.5 61.875C82.5 65.672 79.422 68.75 75.625 68.75C71.828 68.75 68.75 65.672 68.75 61.875Z" fill="black" fill-opacity="0.54"/>
</g>
</svg>
